<?xml version="1.0" standalone="no"?>
<!DOCTYPE svg PUBLIC "-//W3C//DTD SVG 20010904//EN"
 "http://www.w3.org/TR/2001/REC-SVG-20010904/DTD/svg10.dtd">
<svg version="1.0" xmlns="http://www.w3.org/2000/svg"
 width="418.000000pt" height="418.000000pt" viewBox="0 0 418.000000 418.000000"
 preserveAspectRatio="xMidYMid meet">
<metadata>
Created by potrace 1.11, written by Peter Selinger 2001-2013
</metadata>
<g transform="translate(0.000000,418.000000) scale(0.100000,-0.100000)"
fill="#000000" stroke="none">
<path d="M1735 4173 c-529 -32 -952 -91 -1467 -205 l-188 -42 0 -831 c0 -794
1 -837 21 -946 138 -769 586 -1469 1199 -1872 130 -85 330 -183 475 -234 106
-36 115 -37 245 -38 130 0 140 1 252 38 141 47 379 162 508 247 246 162 448
354 637 607 305 408 499 896 557 1403 13 111 16 268 16 877 l0 742 -51 15
c-373 111 -991 207 -1519 236 -168 9 -560 11 -685 3z m785 -147 c331 -40 754
-123 1040 -203 l135 -38 0 -920 c0 -1005 1 -982 -60 -1220 -138 -536 -494
-984 -957 -1205 -120 -57 -217 -90 -360 -122 -88 -20 -131 -23 -293 -23 -162
0 -205 3 -293 23 -236 53 -445 148 -627 284 -423 318 -697 819 -745 1364 -7
76 -10 429 -8 969 l3 850 135 37 c309 86 745 171 1045 202 83 9 166 18 185 20
93 10 673 -3 800 -18z"/>
<path d="M1811 3979 c-361 -18 -864 -102 -1266 -211 l-120 -33 -3 -672 c-1
-370 0 -673 3 -673 3 0 47 7 98 15 300 48 796 98 1157 116 379 20 870 1 1350
-52 175 -19 494 -61 567 -75 l33 -6 0 675 0 674 -227 56 c-464 114 -814 168
-1199 187 -109 5 -206 9 -214 8 -8 0 -89 -5 -179 -9z m719 -213 c0 -1 -11 -15
-25 -30 -14 -15 -25 -34 -25 -42 0 -18 0 -18 40 11 51 37 102 49 142 32 70
-29 66 -40 -34 -88 -91 -42 -95 -43 -223 -49 -137 -6 -183 -20 -205 -60 -17
-32 -3 -57 41 -74 49 -20 101 -20 302 0 178 18 437 15 501 -5 21 -7 57 -30 80
-51 37 -34 41 -44 41 -85 0 -43 -3 -49 -57 -99 -62 -57 -66 -66 -43 -90 16
-16 38 -21 137 -31 32 -4 60 -10 63 -15 2 -4 -6 -24 -20 -44 -30 -44 -30 -44
-9 -67 20 -22 10 -39 -22 -39 -32 0 -32 -27 1 -42 35 -16 14 -38 -35 -38 -49
0 -68 -8 -81 -31 -8 -15 -5 -26 10 -46 22 -26 27 -77 12 -102 -6 -9 -10 -10
-16 -2 -3 7 -15 9 -26 6 -10 -4 -32 1 -48 11 -28 16 -29 16 -52 -5 -18 -17
-31 -21 -54 -16 -16 3 -42 6 -57 6 -24 0 -28 4 -28 28 0 15 9 36 20 46 25 23
26 35 2 35 -18 0 -62 42 -62 58 0 12 47 32 75 32 13 0 36 -5 51 -11 59 -22 99
19 92 92 l-3 34 -95 -3 c-52 -1 -109 3 -127 9 -45 15 -75 60 -78 117 l-1 47
-62 3 c-86 4 -130 -10 -224 -75 -122 -84 -162 -97 -288 -97 -105 0 -108 1
-222 49 -15 6 -18 2 -18 -24 0 -42 -34 -75 -113 -111 -79 -35 -90 -49 -89
-105 0 -25 -4 -45 -8 -45 -23 0 -65 24 -91 51 -25 27 -31 29 -45 18 -11 -9
-14 -23 -11 -46 7 -38 1 -39 -47 -16 -29 13 -40 14 -62 4 -25 -11 -26 -14 -20
-65 6 -43 4 -55 -10 -67 -13 -11 -18 -11 -21 -1 -3 6 -16 12 -29 12 -27 0 -64
32 -64 55 0 18 0 18 -42 0 -31 -12 -38 -12 -54 0 -11 8 -27 15 -36 15 -29 0
-21 39 15 75 33 33 33 34 16 52 -10 10 -20 28 -22 40 -2 12 -6 25 -10 29 -13
13 4 24 37 24 20 0 51 -12 80 -31 l47 -32 65 22 c84 27 209 100 273 157 41 37
60 47 107 54 31 5 72 18 91 30 26 15 39 18 53 10 10 -5 26 -10 35 -10 29 0 72
54 90 112 l18 57 483 -6 c510 -6 514 -6 514 38 0 55 -168 80 -407 59 -351 -30
-442 -25 -502 26 -104 87 27 244 206 244 37 0 43 3 49 24 8 32 36 57 76 66 39
9 58 11 58 6z m-942 -28 c27 -8 37 -7 53 8 18 16 20 16 38 0 16 -15 26 -16 53
-8 18 6 54 14 81 18 45 6 47 5 47 -18 0 -20 8 -27 43 -39 88 -28 177 -151 177
-243 0 -53 -19 -106 -35 -100 -8 4 -17 0 -19 -7 -21 -71 -52 -142 -63 -146 -8
-3 -25 5 -39 18 l-24 23 -16 -22 c-15 -22 -50 -44 -91 -56 -19 -6 -22 -4 -16
10 4 10 17 27 30 39 13 11 39 62 59 115 29 79 34 103 29 142 -5 35 -3 53 9 70
22 31 20 90 -3 119 -27 33 -90 33 -125 0 -34 -32 -33 -46 8 -84 23 -22 37 -48
46 -85 12 -50 11 -57 -14 -111 -14 -32 -26 -65 -26 -73 0 -19 -29 -58 -44 -58
-7 0 -21 6 -32 14 -18 14 -18 15 10 37 25 20 28 27 22 65 -4 36 -2 44 13 49
17 5 41 44 41 65 0 12 -34 13 -80 4 l-32 -7 6 -50 c4 -28 8 -55 9 -61 1 -6
-18 -12 -42 -13 -40 -3 -43 -1 -38 20 4 12 9 41 13 64 l6 41 -56 7 c-31 4 -59
5 -62 2 -7 -6 24 -57 45 -75 10 -8 14 -26 12 -51 -2 -32 2 -42 25 -60 26 -20
26 -23 11 -38 -28 -28 -60 -4 -84 63 -11 33 -26 73 -33 90 -20 48 3 119 53
166 40 38 40 38 21 59 -62 69 -149 57 -169 -23 -5 -19 -1 -38 13 -61 15 -26
18 -46 15 -83 -4 -38 1 -64 20 -109 13 -33 27 -73 31 -88 4 -15 20 -42 36 -59
27 -27 39 -58 25 -58 -21 0 -84 35 -102 57 l-22 27 -24 -22 c-13 -12 -28 -22
-34 -22 -12 0 -50 84 -60 130 -4 23 -10 29 -23 25 -15 -5 -20 4 -30 45 -29
120 37 237 166 297 44 20 51 27 46 45 -5 20 -2 20 44 14 27 -4 64 -12 82 -18z
m-78 -111 c0 -19 -37 -50 -49 -42 -25 15 -2 55 31 55 10 0 18 -6 18 -13z m361
-8 c18 -34 -5 -48 -30 -18 -26 30 -26 39 -1 39 10 0 24 -9 31 -21z m831 0 c21
-11 20 -12 -13 -30 -49 -26 -108 -41 -135 -35 -30 8 -31 26 -1 26 12 1 42 12
67 25 53 28 55 29 82 14z m-1606 -240 c8 -16 14 -47 14 -71 0 -24 4 -48 8 -55
12 -19 110 -60 207 -87 50 -14 117 -34 150 -46 49 -18 67 -20 103 -12 59 13
55 -4 -13 -53 -102 -74 -196 -91 -275 -50 -37 19 -90 19 -116 0 -31 -23 -37
-18 -31 30 6 41 5 45 -14 45 -11 0 -30 -5 -41 -11 -20 -11 -20 -9 -14 35 7 43
5 47 -19 58 -21 9 -33 9 -58 -1 -53 -22 -95 -25 -121 -7 l-25 15 31 33 c26 28
28 33 14 44 -9 6 -23 28 -32 49 -15 36 -15 40 2 52 23 17 72 16 103 -1 23 -13
25 -12 43 22 10 20 18 42 18 49 0 22 50 -7 66 -38z m618 -173 c32 -11 1 -31
-49 -31 -55 0 -80 20 -43 34 15 5 29 15 33 21 5 8 12 7 23 -3 10 -8 26 -17 36
-21z m937 -117 c4 -8 13 -30 20 -48 7 -19 26 -50 42 -68 29 -33 29 -34 11 -48
-22 -16 -91 -35 -127 -35 -33 0 -49 -22 -41 -55 7 -27 6 -28 -30 -21 -32 6
-36 4 -36 -13 0 -11 5 -23 10 -26 17 -10 11 -25 -10 -25 -10 0 -35 7 -54 16
-48 24 -69 13 -61 -30 8 -40 -10 -83 -28 -68 -7 6 -29 10 -49 9 -23 -1 -45 6
-57 17 -17 16 -24 16 -54 5 -30 -10 -40 -10 -71 5 -26 12 -34 21 -29 34 10 29
27 44 61 59 26 11 32 18 27 31 -4 9 -8 24 -9 32 -1 9 -6 21 -10 28 -11 19 0
26 39 26 26 0 44 -9 69 -33 35 -34 35 -34 80 -21 80 22 127 90 68 98 -12 2
-22 7 -22 12 0 18 131 106 182 122 59 19 68 18 79 -3z"/>
<path d="M1698 2453 l-48 -4 -2 -312 -3 -312 -597 -3 c-561 -2 -598 -3 -598
-20 0 -36 51 -226 86 -320 58 -154 154 -337 231 -440 l24 -32 32 22 c32 23 34
23 429 26 l398 3 2 -327 3 -328 30 -8 c153 -42 402 -50 588 -18 66 11 123 23
128 26 5 3 9 147 9 330 l0 324 389 0 388 0 38 -25 c20 -15 39 -25 40 -23 23
25 137 217 174 293 73 150 161 418 161 493 l0 22 -595 0 -595 0 0 314 0 313
-77 7 c-77 6 -549 5 -635 -1z m357 -193 c15 -44 31 -80 36 -80 5 0 41 16 79
35 39 19 70 33 70 30 0 -3 -16 -37 -36 -76 -19 -39 -33 -73 -31 -75 2 -2 39
-17 82 -33 l78 -28 -81 -27 c-45 -15 -82 -30 -82 -32 0 -3 11 -27 25 -55 15
-28 30 -61 35 -74 l9 -24 -37 16 c-20 8 -54 24 -74 34 -21 11 -39 19 -42 19
-2 0 -17 -37 -32 -82 l-27 -82 -29 79 c-16 44 -31 81 -33 83 -1 2 -35 -13 -74
-32 -39 -20 -73 -36 -75 -36 -3 0 11 34 30 77 40 87 42 82 -53 114 -35 11 -63
22 -63 24 0 2 34 15 75 30 41 15 75 32 75 37 0 4 -16 40 -35 78 -40 79 -41 79
65 25 28 -14 54 -24 58 -21 5 3 19 39 32 80 13 42 25 76 26 76 1 0 14 -36 29
-80z m1107 -644 c38 19 72 33 75 30 3 -3 -10 -37 -27 -76 -18 -38 -31 -72 -29
-73 2 -2 33 -14 69 -27 80 -28 89 -36 55 -44 -14 -4 -50 -16 -80 -27 l-55 -20
36 -71 c19 -38 33 -72 31 -75 -3 -2 -32 9 -66 26 -33 17 -67 31 -74 31 -8 0
-23 -30 -37 -75 -13 -42 -27 -72 -30 -68 -4 5 -18 38 -30 76 -14 38 -30 67
-37 67 -8 0 -41 -14 -74 -31 -34 -17 -62 -29 -64 -27 -2 2 12 36 30 76 l34 72
-35 15 c-20 8 -53 20 -75 26 -21 7 -39 15 -39 19 0 4 18 12 39 19 22 6 55 18
75 26 l35 15 -34 72 c-18 40 -32 74 -31 76 2 1 36 -13 77 -32 l74 -35 23 67
c12 37 25 74 28 82 3 9 18 -18 36 -67 l30 -82 70 35z m-2113 44 c14 -45 27
-70 37 -70 8 0 42 14 75 31 34 17 63 28 66 26 2 -3 -12 -37 -32 -76 l-35 -71
22 -9 c13 -5 47 -17 76 -27 28 -10 52 -21 52 -24 0 -3 -24 -14 -52 -24 -29
-10 -63 -22 -76 -27 l-22 -9 35 -71 c20 -39 34 -73 32 -76 -3 -2 -37 12 -76
32 -51 25 -73 32 -76 23 -28 -81 -49 -134 -54 -141 -4 -4 -18 26 -31 68 -13
41 -28 75 -34 75 -6 0 -40 -14 -75 -30 -35 -17 -66 -29 -68 -26 -2 2 12 36 31
74 l36 71 -55 20 c-30 11 -66 23 -80 27 -35 9 -24 17 58 44 37 12 67 26 67 31
0 5 -14 39 -30 76 -17 36 -28 68 -26 70 2 2 36 -12 74 -31 39 -20 73 -32 75
-28 2 4 14 37 26 75 13 37 26 67 30 67 4 0 17 -31 30 -70z m871 55 c15 -8 38
-27 49 -41 20 -25 21 -39 21 -251 l0 -224 -22 13 c-16 9 -88 15 -228 18 l-205
5 -3 235 c-1 129 0 240 2 247 8 20 347 18 386 -2z m600 -235 l0 -250 -203 0
c-163 0 -207 -3 -223 -15 -10 -8 -23 -15 -27 -15 -4 0 -7 103 -5 229 4 308 -4
300 281 301 l177 0 0 -250z m-1022 193 c3 -20 -1 -23 -32 -23 -32 0 -36 3 -36
26 0 23 3 25 33 22 24 -2 33 -8 35 -25z m1130 0 c3 -21 -1 -23 -37 -23 -33 0
-41 4 -41 18 0 27 10 33 45 30 22 -2 31 -9 33 -25z m-1130 -140 c3 -20 -1 -23
-32 -23 -32 0 -36 3 -36 26 0 23 3 25 33 22 24 -2 33 -8 35 -25z m1130 0 c3
-21 -1 -23 -37 -23 -33 0 -41 4 -41 18 0 27 10 33 45 30 22 -2 31 -9 33 -25z
m-1128 -138 c0 -22 -4 -25 -35 -25 -31 0 -35 3 -35 25 0 22 4 25 35 25 31 0
35 -3 35 -25z m1130 0 c0 -22 -4 -25 -40 -25 -36 0 -40 3 -40 25 0 23 4 25 40
25 36 0 40 -2 40 -25z m-1132 -137 c-2 -18 -11 -24 -35 -26 -30 -3 -33 -1 -33
22 0 23 4 26 36 26 31 0 35 -3 32 -22z m1130 0 c-2 -19 -9 -23 -38 -23 -29 0
-36 4 -38 23 -3 20 1 22 38 22 37 0 41 -2 38 -22z m-573 -233 c15 -41 31 -75
35 -75 4 0 37 14 73 30 37 17 69 30 71 30 3 0 -10 -33 -29 -72 -18 -40 -31
-76 -29 -80 3 -4 36 -17 74 -29 39 -13 70 -26 70 -29 0 -3 -31 -16 -70 -29
-38 -12 -72 -26 -75 -31 -3 -5 10 -41 30 -80 19 -38 33 -70 31 -70 -3 0 -39
15 -80 34 l-75 34 -26 -79 c-15 -43 -28 -79 -30 -79 -2 0 -15 36 -30 79 l-26
80 -37 -16 c-20 -8 -54 -24 -74 -34 -21 -11 -40 -19 -43 -19 -3 0 11 31 30 70
19 38 35 73 35 78 0 5 -18 14 -39 21 -22 6 -56 18 -78 27 l-38 16 72 27 c39
14 74 29 78 32 3 4 -9 36 -27 73 -17 36 -29 68 -26 71 3 4 38 -10 76 -29 l71
-36 26 80 c15 44 28 80 30 80 2 0 15 -34 30 -75z"/>
<path d="M1600 1605 l0 -25 155 0 155 0 0 25 0 25 -155 0 -155 0 0 -25z"/>
<path d="M1600 1475 l0 -25 155 0 155 0 0 25 0 25 -155 0 -155 0 0 -25z"/>
<path d="M1600 1345 l0 -25 155 0 155 0 0 25 0 25 -155 0 -155 0 0 -25z"/>
<path d="M2140 1605 l0 -25 155 0 155 0 0 25 0 25 -155 0 -155 0 0 -25z"/>
<path d="M2140 1475 l0 -25 155 0 155 0 0 25 0 25 -155 0 -155 0 0 -25z"/>
<path d="M2140 1345 l0 -25 155 0 155 0 0 25 0 25 -155 0 -155 0 0 -25z"/>
</g>
</svg>
